<?xml version="1.0" standalone="no"?><!DOCTYPE svg PUBLIC "-//W3C//DTD SVG 1.1//EN" "http://www.w3.org/Graphics/SVG/1.1/DTD/svg11.dtd"><svg t="1637147352205" class="icon" viewBox="0 0 1024 1024" version="1.1" xmlns="http://www.w3.org/2000/svg" p-id="10257" xmlns:xlink="http://www.w3.org/1999/xlink" width="200" height="200"><defs><style type="text/css"></style></defs><path d="M507.2 547.2l-16 62.4h30.4zM676.8 556.8c-3.2-4.8-6.4-8-9.6-9.6-3.2-1.6-8-3.2-12.8-3.2h-24v99.2h24c4.8 0 8-1.6 12.8-3.2 3.2-1.6 8-4.8 9.6-9.6s4.8-9.6 6.4-16c1.6-6.4 3.2-12.8 3.2-20.8s-1.6-14.4-3.2-20.8-3.2-11.2-6.4-16z" p-id="10258"></path><path d="M788.8 427.2v-116.8l-161.6-160H299.2c-35.2 0-64 28.8-64 64v212.8H192V768h43.2v43.2c0 35.2 28.8 64 64 64h427.2c35.2 0 64-28.8 64-64V768H832V427.2h-43.2z m-152-179.2l70.4 70.4h-70.4v-70.4z m-337.6-35.2h273.6v169.6h152v43.2H299.2V212.8z m283.2 462.4h-44.8l-8-32h-46.4l-8 32h-44.8l44.8-164.8h64l43.2 164.8z m-286.4-81.6c0-12.8 1.6-25.6 6.4-36.8s9.6-19.2 17.6-27.2c8-8 16-12.8 27.2-17.6 9.6-4.8 20.8-6.4 33.6-6.4 8 0 16 1.6 22.4 3.2 8 1.6 12.8 3.2 17.6 6.4l-1.6 33.6c-4.8-1.6-9.6-3.2-16-4.8-4.8-1.6-11.2-1.6-19.2-1.6-6.4 0-12.8 1.6-17.6 3.2-6.4 1.6-11.2 4.8-14.4 9.6-4.8 4.8-8 9.6-9.6 16-3.2 6.4-3.2 14.4-3.2 22.4 0 8 1.6 14.4 4.8 20.8s6.4 11.2 11.2 16c4.8 4.8 9.6 8 14.4 9.6 4.8 1.6 11.2 3.2 16 3.2 6.4 0 12.8 0 19.2-1.6s11.2-3.2 14.4-4.8l11.2 32-9.6 4.8c-3.2 1.6-8 1.6-11.2 3.2-4.8 1.6-8 1.6-12.8 1.6H384c-12.8 0-24-1.6-33.6-6.4-9.6-3.2-19.2-9.6-27.2-17.6-8-8-12.8-16-17.6-27.2-6.4-8-9.6-20.8-9.6-33.6z m428.8 217.6H299.2V768h427.2v43.2z m-17.6-156.8c-12.8 14.4-33.6 20.8-60.8 20.8h-57.6V510.4h57.6c27.2 0 46.4 6.4 60.8 20.8 12.8 14.4 20.8 35.2 20.8 62.4 0 27.2-6.4 48-20.8 60.8z" p-id="10259"></path></svg>