<?xml version="1.0" standalone="no"?><!DOCTYPE svg PUBLIC "-//W3C//DTD SVG 1.1//EN" "http://www.w3.org/Graphics/SVG/1.1/DTD/svg11.dtd"><svg t="1637498339072" class="icon" viewBox="0 0 1024 1024" version="1.1" xmlns="http://www.w3.org/2000/svg" p-id="2357" xmlns:xlink="http://www.w3.org/1999/xlink" width="200" height="200"><defs><style type="text/css"></style></defs><path d="M883.396923 298.141538a99.721846 99.721846 0 0 1-142.414769 0 103.187692 103.187692 0 0 1 0-144.423384 99.721846 99.721846 0 0 1 142.414769 0 103.187692 103.187692 0 0 1 0 144.423384zM285.144615 760.438154a87.276308 87.276308 0 0 0-124.652307 0 90.269538 90.269538 0 0 0 0 126.385231c34.422154 34.894769 90.230154 34.894769 124.652307 0a90.269538 90.269538 0 0 0 0-126.424616z m482.579693 108.307692a64.472615 64.472615 0 0 1 0-90.269538 62.345846 62.345846 0 0 1 89.00923 0c24.576 24.930462 24.576 65.378462 0 90.269538a62.345846 62.345846 0 0 1-89.00923 0zM294.006154 298.141538a103.187692 103.187692 0 0 0 0-144.423384 99.721846 99.721846 0 0 0-142.454154 0 103.187692 103.187692 0 0 0 0 144.423384 99.721846 99.721846 0 0 0 142.454154 0z m324.214154-196.01723c0 56.438154-45.095385 102.163692-100.745846 102.163692-55.611077 0-100.706462-45.725538-100.706462-102.163692C416.768 45.725538 461.863385 0 517.474462 0c55.650462 0 100.745846 45.725538 100.745846 102.124308zM517.474462 870.793846c-41.747692 0-75.539692 34.264615-75.539693 76.603077 0 42.299077 33.831385 76.603077 75.539693 76.603077 41.747692 0 75.539692-34.264615 75.539692-76.603077 0-42.299077-33.792-76.603077-75.539692-76.603077z m416.768-294.990769c-27.805538 0-50.333538-22.843077-50.333539-51.042462 0-28.199385 22.528-51.042462 50.333539-51.042461 27.844923 0 50.412308 22.843077 50.372923 51.042461 0 28.199385-22.567385 51.081846-50.372923 51.081847zM201.452308 524.8c0-56.398769-45.095385-102.124308-100.745846-102.124308C45.095385 422.596923 0 468.283077 0 524.760615c0 56.398769 45.095385 102.124308 100.706462 102.124308 55.650462 0 100.745846-45.686154 100.745846-102.124308z" p-id="2358"></path></svg>