<?xml version="1.0" standalone="no"?><!DOCTYPE svg PUBLIC "-//W3C//DTD SVG 1.1//EN" "http://www.w3.org/Graphics/SVG/1.1/DTD/svg11.dtd"><svg t="1637328669183" class="icon" viewBox="0 0 1024 1024" version="1.1" xmlns="http://www.w3.org/2000/svg" p-id="4032" xmlns:xlink="http://www.w3.org/1999/xlink" width="200" height="200"><defs><style type="text/css"></style></defs><path d="M995.555556 113.777778H445.212444A170.496 170.496 0 0 0 123.676444 113.777778H28.444444a28.529778 28.529778 0 0 0-28.444444 28.444444v56.888889a28.529778 28.529778 0 0 0 28.444444 28.444445h95.232a170.496 170.496 0 0 0 321.536 0H995.555556a28.529778 28.529778 0 0 0 28.444444-28.444445V142.222222a28.529778 28.529778 0 0 0-28.444444-28.444444zM284.444444 256a85.333333 85.333333 0 1 1 85.333334-85.333333 85.333333 85.333333 0 0 1-85.333334 85.333333z m711.111112 199.111111h-95.260445a170.439111 170.439111 0 0 0-321.479111 0H28.444444a28.529778 28.529778 0 0 0-28.444444 28.444445v56.888888a28.529778 28.529778 0 0 0 28.444444 28.444445h550.371556a170.439111 170.439111 0 0 0 321.479111 0H995.555556a28.529778 28.529778 0 0 0 28.444444-28.444445v-56.888888a28.529778 28.529778 0 0 0-28.444444-28.444445z m-256 142.222222a85.333333 85.333333 0 1 1 85.333333-85.333333 85.333333 85.333333 0 0 1-85.333333 85.333333z m256 199.111111H558.961778a170.467556 170.467556 0 0 0-321.507556 0H28.444444a28.529778 28.529778 0 0 0-28.444444 28.444445v56.888889a28.529778 28.529778 0 0 0 28.444444 28.444444h209.009778a170.467556 170.467556 0 0 0 321.507556 0H995.555556a28.529778 28.529778 0 0 0 28.444444-28.444444v-56.888889a28.529778 28.529778 0 0 0-28.444444-28.444445z m-597.333334 142.222223a85.333333 85.333333 0 1 1 85.333334-85.333334 85.333333 85.333333 0 0 1-85.333334 85.333334z" p-id="4033"></path></svg>