<?xml version="1.0" standalone="no"?><!DOCTYPE svg PUBLIC "-//W3C//DTD SVG 1.1//EN" "http://www.w3.org/Graphics/SVG/1.1/DTD/svg11.dtd"><svg t="1637145692856" class="icon" viewBox="0 0 1024 1024" version="1.1" xmlns="http://www.w3.org/2000/svg" p-id="5404" xmlns:xlink="http://www.w3.org/1999/xlink" width="200" height="200"><defs><style type="text/css"></style></defs><path d="M77.952396 927.247422l131.61662-307.132052L763.807003 65.875337l4.468778-1.387603c1.165546-0.361227 11.888771-3.543709 28.217668-3.543709 26.608008 0 66.5016 8.169053 105.433284 47.100738 65.150836 65.141626 39.21821 128.072911 38.080294 130.71918l-1.433652 3.349281-2.580778 2.571568L385.066029 795.612383 77.952396 927.247422zM241.523799 641.744993l-91.426269 213.356272 213.337853-91.444689 542.665417-542.664394c2.840698-10.204409 8.928347-46.258557-30.966269-86.153172-29.753651-29.753651-59.193147-35.998889-78.640058-35.998889-5.615904 0-10.121522 0.536212-13.100366 1.036609L241.523799 641.744993z" p-id="5405"></path><path d="M78.31567 925.700183l860.600513 0 0 37.862329-860.600513 0 0-37.862329Z" p-id="5406"></path></svg>