<?xml version="1.0" standalone="no"?><!DOCTYPE svg PUBLIC "-//W3C//DTD SVG 1.1//EN" "http://www.w3.org/Graphics/SVG/1.1/DTD/svg11.dtd"><svg t="1637497962531" class="icon" viewBox="0 0 1024 1024" version="1.1" xmlns="http://www.w3.org/2000/svg" p-id="2205" xmlns:xlink="http://www.w3.org/1999/xlink" width="200" height="200"><defs><style type="text/css"></style></defs><path d="M64 335.8v352c0 8.8 6.9 16 15.4 16h865.1c8.5 0 15.4-7.2 15.4-16v-352c0-8.8-6.9-16-15.4-16h-865c-8.6 0-15.5 7.2-15.5 16z m833.2 304H128.8v-256h768.4v256z" p-id="2206"></path><path d="M202.5 577.6h30v62h-30zM320.3 485.3h30v154h-30zM438.1 577.6h30v62h-30zM555.9 485.3h30v154h-30zM673.7 577.6h30v62h-30zM791.5 485.3h30v154h-30z" p-id="2207"></path></svg>