<?xml version="1.0" standalone="no"?><!DOCTYPE svg PUBLIC "-//W3C//DTD SVG 1.1//EN" "http://www.w3.org/Graphics/SVG/1.1/DTD/svg11.dtd"><svg t="1637631196744" class="icon" viewBox="0 0 1024 1024" version="1.1" xmlns="http://www.w3.org/2000/svg" p-id="1155" xmlns:xlink="http://www.w3.org/1999/xlink" width="200" height="200"><defs><style type="text/css"></style></defs><path d="M507.2 886.4c-8 0-15.2-1.6-22.4-5.6-14.4-7.2-23.2-20.8-23.2-36V671.2c-67.2-4-228 0-312.8 127.2-7.2 12-22.4 17.6-36.8 13.6-14.4-4-24-16.8-24-32v-2.4c32.8-335.2 292-408.8 373.6-423.2V184c0.8-20 11.2-35.2 28-42.4 16.8-7.2 36-4 48.8 6.4 76 63.2 292 242.4 375.2 312.8l0.8 0.8c14.4 13.6 22.4 32 21.6 51.2 0 19.2-8.8 37.6-23.2 51.2l-0.8 0.8c-82.4 69.6-281.6 235.2-366.4 305.6l-6.4 5.6c-9.6 6.4-20.8 10.4-32 10.4z m-76-264c20.8 0 38.4 1.6 50.4 2.4h2.4c15.2 3.2 25.6 15.2 25.6 30.4v181.6c0.8 0 0.8-0.8 1.6-0.8l4-4c84.8-70.4 283.2-235.2 365.6-304.8 4.8-4.8 7.2-10.4 7.2-16s-2.4-11.2-6.4-16c-83.2-69.6-293.6-245.6-372-310.4v181.6c0 15.2-10.4 28-25.6 30.4h-1.6c-68.8 9.6-287.2 60.8-339.2 329.6 88-88 212-104 288-104z" fill="#999999" p-id="1156"></path></svg>