<?xml version="1.0" standalone="no"?><!DOCTYPE svg PUBLIC "-//W3C//DTD SVG 1.1//EN" "http://www.w3.org/Graphics/SVG/1.1/DTD/svg11.dtd"><svg t="1637143890208" class="icon" viewBox="0 0 1024 1024" version="1.1" xmlns="http://www.w3.org/2000/svg" p-id="597" xmlns:xlink="http://www.w3.org/1999/xlink" width="200" height="200"><defs><style type="text/css"></style></defs><path d="M326.4 0C211.2 0 115.2 92.8 115.2 204.8c0 108.8 201.6 323.2 201.6 323.2l9.6 9.6 9.6-9.6s201.6-211.2 201.6-323.2c-3.2-112-96-204.8-211.2-204.8z m0 326.4c-64 0-115.2-51.2-115.2-115.2S265.6 96 326.4 96s115.2 51.2 115.2 115.2-51.2 115.2-115.2 115.2z m278.4 464l163.2-140.8 160 19.2-41.6-204.8h-300.8v92.8l-192 150.4 99.2 131.2 112-48z m-137.6 92.8l-185.6-256L64 777.6 22.4 1024h598.4l-35.2-176-118.4 35.2z m470.4-163.2l-144-19.2-160 134.4L672 1024h329.6l-64-304z m-332.8 70.4l163.2-140.8 160 19.2-41.6-204.8h-300.8v92.8l-192 150.4 99.2 131.2 112-48z m-137.6 92.8l-185.6-256L64 777.6 22.4 1024h598.4l-35.2-176-118.4 35.2z m470.4-163.2l-144-19.2-160 134.4L672 1024h329.6l-64-304z m-496-252.8h-16c-48 60.8-89.6 105.6-89.6 105.6l-9.6 9.6-9.6-9.6s-41.6-44.8-89.6-105.6H115.2l-41.6 259.2 204.8-163.2 80 108.8 176-131.2v-70.4h-12.8l-80-3.2z" fill="#666666" p-id="598"></path></svg>