<?xml version="1.0" standalone="no"?><!DOCTYPE svg PUBLIC "-//W3C//DTD SVG 1.1//EN" "http://www.w3.org/Graphics/SVG/1.1/DTD/svg11.dtd"><svg t="1637631155724" class="icon" viewBox="0 0 1024 1024" version="1.1" xmlns="http://www.w3.org/2000/svg" p-id="3293" xmlns:xlink="http://www.w3.org/1999/xlink" width="200" height="200"><defs><style type="text/css"></style></defs><path d="M517.6 886.4c-11.2 0-22.4-4-32-11.2l-4.8-4c-84.8-70.4-284.8-236-367.2-306.4-16-13.6-24.8-32.8-24.8-52.8 0-19.2 8-37.6 23.2-51.2 88-75.2 326.4-273.6 374.4-312.8 12.8-11.2 32.8-13.6 48.8-7.2 16.8 7.2 27.2 22.4 27.2 41.6v171.2C644 368 903.2 440.8 936 776v2.4c0 16-9.6 28.8-24 32-14.4 4-29.6-2.4-36.8-13.6-84.8-125.6-245.6-130.4-312.8-126.4v173.6c0 16-8.8 29.6-24 37.6-6.4 3.2-13.6 4.8-20.8 4.8z m-4-49.6c0.8 0 0.8 0.8 0 0l0.8-181.6c0-16.8 12.8-30.4 28.8-31.2 55.2-5.6 225.6-11.2 337.6 104-52-267.2-270.4-318.4-339.2-328h-1.6c-15.2-3.2-25.6-15.2-25.6-30.4V187.2C461.6 230.4 229.6 424 142.4 497.6c-4.8 4.8-6.4 10.4-6.4 14.4 0 6.4 3.2 12 8 16 82.4 69.6 281.6 235.2 366.4 305.6l3.2 3.2z m0.8-653.6z" fill="#999999" p-id="3294"></path></svg>